<?xml version="1.0" encoding="UTF-8" standalone="no"?>
<svg
   width="88.684502mm"
   height="62.186298mm"
   version="1.1"
   viewBox="0 0 88.684504 62.186298"
   xml:space="preserve"
   id="svgBlank"
   sodipodi:docname="cardBlank.svg"
   inkscape:version="1.2.2 (b0a8486541, 2022-12-01)"
   xmlns:inkscape="http://www.inkscape.org/namespaces/inkscape"
   xmlns:sodipodi="http://sodipodi.sourceforge.net/DTD/sodipodi-0.dtd"
   xmlns="http://www.w3.org/2000/svg"
   xmlns:svg="http://www.w3.org/2000/svg"><defs
     id="defs12"><inkscape:path-effect
       effect="powerclip"
       id="path-effect5093"
       is_visible="true"
       lpeversion="1"
       inverse="true"
       flatten="false"
       hide_clip="false"
       message="Use fill-rule evenodd on &lt;b&gt;fill and stroke&lt;/b&gt; dialog if no flatten result after convert clip to paths." /><clipPath
       clipPathUnits="userSpaceOnUse"
       id="clipPath5089"><path
         style="display:none;opacity:1;fill:#000000;fill-opacity:1;stroke:#000000;stroke-width:1;stroke-linecap:round;stroke-linejoin:round;stroke-dasharray:none;stroke-opacity:1"
         d="m 62.494549,55.554488 c 2.063716,-0.06262 2.908297,-1.240708 3.056218,-3.056218 V 10.259471 C 65.449109,9.2924791 64.981143,8.4706558 64.12316,8.1778062 61.700995,7.5661721 61.397097,7.6813122 59.336067,7.3689792 53.224726,6.5711914 48.940955,6.5970708 44.154786,6.5076144 c -4.78617,0.089457 -9.069941,0.063577 -15.181281,0.8613648 -2.06103,0.312333 -2.364928,0.1971929 -4.787095,0.808827 -0.857983,0.2928496 -1.325947,1.1146729 -1.427606,2.0816648 V 52.49827 c 0.147922,1.81551 0.992502,2.993599 3.056218,3.056218 h 18.339764 z"
         id="path5091"
         sodipodi:nodetypes="ccccccccccccc" /><path
         id="lpe_path-effect5093"
         style="opacity:1;fill:#000000;fill-opacity:1;stroke:#000000;stroke-width:1;stroke-linecap:round;stroke-linejoin:round;stroke-dasharray:none;stroke-opacity:1"
         class="powerclip"
         d="M -5,-5 H 93.6845 V 67.1863 H -5 Z m 67.494549,60.554488 c 2.063716,-0.06262 2.908297,-1.240708 3.056218,-3.056218 V 10.259471 C 65.449109,9.2924791 64.981143,8.4706558 64.12316,8.1778062 61.700995,7.5661721 61.397097,7.6813122 59.336067,7.3689792 53.224726,6.5711914 48.940955,6.5970708 44.154786,6.5076144 c -4.78617,0.089457 -9.069941,0.063577 -15.181281,0.8613648 -2.06103,0.312333 -2.364928,0.1971929 -4.787095,0.808827 -0.857983,0.2928496 -1.325947,1.1146729 -1.427606,2.0816648 V 52.49827 c 0.147922,1.81551 0.992502,2.993599 3.056218,3.056218 h 18.339764 z" /></clipPath></defs><sodipodi:namedview
     id="namedview10"
     pagecolor="#505050"
     bordercolor="#ffffff"
     borderopacity="1"
     inkscape:showpageshadow="0"
     inkscape:pageopacity="0"
     inkscape:pagecheckerboard="1"
     inkscape:deskcolor="#505050"
     inkscape:document-units="mm"
     showgrid="false"
     inkscape:zoom="2.1920696"
     inkscape:cx="205.74165"
     inkscape:cy="124.53984"
     inkscape:window-width="1920"
     inkscape:window-height="1031"
     inkscape:window-x="0"
     inkscape:window-y="0"
     inkscape:window-maximized="1"
     inkscape:current-layer="svgBlank"
     showguides="true"><sodipodi:guide
       position="23.138029,54.419497"
       orientation="0,-1"
       id="guide1179"
       inkscape:locked="false" /><sodipodi:guide
       position="45.83738,54.601968"
       orientation="1,0"
       id="guide1235"
       inkscape:locked="false" /></sodipodi:namedview><path
     d="M 2.4287501,11.69855 C 8.4314501,6.2681501 25.09475,2.4277501 44.34275,2.4277501 c 19.248,0 35.779,3.8977 41.914,9.2707999 v 48.06 H 2.4277501 Z"
     fill="#8a8f98"
     opacity="0.997"
     stroke="#8a8f98"
     stroke-linecap="round"
     stroke-linejoin="round"
     stroke-width="4.8555"
     style="paint-order:markers fill stroke"
     id="blankBody"
     clip-path="url(#clipPath5089)"
     inkscape:path-effect="#path-effect5093"
     inkscape:original-d="M 2.4287501,11.69855 C 8.4314501,6.2681501 25.09475,2.4277501 44.34275,2.4277501 c 19.248,0 35.779,3.8977 41.914,9.2707999 v 48.06 H 2.4277501 Z" /><path
     d="m 81.95375,61.45855 v -16.188 l 6.015,-3.7622"
     fill="none"
     stroke="#6f747d"
     stroke-linecap="round"
     stroke-linejoin="round"
     id="blankBevelR" /><path
     d="M 68.35375,6.6185501 V 59.76755"
     fill="none"
     stroke="#6f747d"
     stroke-linecap="round"
     stroke-width="0.78576"
     id="blankRidgeR" /><path
     d="M 20.33475,6.6185501 V 59.76755"
     fill="none"
     stroke="#6f747d"
     stroke-linecap="round"
     stroke-width="0.78576"
     id="blankRidgeL" /><path
     d="m 6.8207501,61.45855 v -16.188 l -6.01499999,-3.7622"
     fill="none"
     stroke="#6f747d"
     stroke-linecap="round"
     stroke-linejoin="round"
     id="blankBevelL" /></svg>
